TITLE ""
FILE "1Q_t_0649-0658.mp3" MP3
  TRACK 01 AUDIO
    TITLE "1Q_t_0649-0658_01"
    INDEX 01 00:00:00
  TRACK 02 AUDIO
    TITLE "1Q_t_0649-0658_02"
    INDEX 01 00:01:16
  TRACK 03 AUDIO
    TITLE "1Q_t_0649-0658_03"
    INDEX 01 00:01:23
  TRACK 04 AUDIO
    TITLE "1Q_t_0649-0658_04"
    INDEX 01 00:03:16
  TRACK 05 AUDIO
    TITLE "1Q_t_0649-0658_05"
    INDEX 01 00:03:22
  TRACK 06 AUDIO
    TITLE "1Q_t_0649-0658_06"
    INDEX 01 00:09:09
  TRACK 07 AUDIO
    TITLE "1Q_t_0649-0658_07"
    INDEX 01 00:09:56
  TRACK 08 AUDIO
    TITLE "1Q_t_0649-0658_08"
    INDEX 01 00:11:08
  TRACK 09 AUDIO
    TITLE "1Q_t_0649-0658_09"
    INDEX 01 00:11:16
  TRACK 10 AUDIO
    TITLE "1Q_t_0649-0658_10"
    INDEX 01 00:13:58
  TRACK 11 AUDIO
    TITLE "1Q_t_0649-0658_11"
    INDEX 01 00:13:64
  TRACK 12 AUDIO
    TITLE "1Q_t_0649-0658_12"
    INDEX 01 00:18:08
  TRACK 13 AUDIO
    TITLE "1Q_t_0649-0658_13"
    INDEX 01 00:18:53
  TRACK 14 AUDIO
    TITLE "1Q_t_0649-0658_14"
    INDEX 01 00:19:66
  TRACK 15 AUDIO
    TITLE "1Q_t_0649-0658_15"
    INDEX 01 00:20:01
  TRACK 16 AUDIO
    TITLE "1Q_t_0649-0658_16"
    INDEX 01 00:21:28
  TRACK 17 AUDIO
    TITLE "1Q_t_0649-0658_17"
    INDEX 01 00:21:34
  TRACK 18 AUDIO
    TITLE "1Q_t_0649-0658_18"
    INDEX 01 00:28:07
  TRACK 19 AUDIO
    TITLE "1Q_t_0649-0658_19"
    INDEX 01 00:28:54
  TRACK 20 AUDIO
    TITLE "1Q_t_0649-0658_20"
    INDEX 01 00:30:15
  TRACK 21 AUDIO
    TITLE "1Q_t_0649-0658_21"
    INDEX 01 00:30:23
  TRACK 22 AUDIO
    TITLE "1Q_t_0649-0658_22"
    INDEX 01 00:33:02
  TRACK 23 AUDIO
    TITLE "1Q_t_0649-0658_23"
    INDEX 01 00:33:10
  TRACK 24 AUDIO
    TITLE "1Q_t_0649-0658_24"
    INDEX 01 00:37:66
  TRACK 25 AUDIO
    TITLE "1Q_t_0649-0658_25"
    INDEX 01 00:38:36
  TRACK 26 AUDIO
    TITLE "1Q_t_0649-0658_26"
    INDEX 01 00:39:53
  TRACK 27 AUDIO
    TITLE "1Q_t_0649-0658_27"
    INDEX 01 00:39:61
  TRACK 28 AUDIO
    TITLE "1Q_t_0649-0658_28"
    INDEX 01 00:44:35
  TRACK 29 AUDIO
    TITLE "1Q_t_0649-0658_29"
    INDEX 01 00:44:43
  TRACK 30 AUDIO
    TITLE "1Q_t_0649-0658_30"
    INDEX 01 00:49:44
  TRACK 31 AUDIO
    TITLE "1Q_t_0649-0658_31"
    INDEX 01 00:50:14
  TRACK 32 AUDIO
    TITLE "1Q_t_0649-0658_32"
    INDEX 01 00:51:33
  TRACK 33 AUDIO
    TITLE "1Q_t_0649-0658_33"
    INDEX 01 00:51:41
  TRACK 34 AUDIO
    TITLE "1Q_t_0649-0658_34"
    INDEX 01 00:53:59
  TRACK 35 AUDIO
    TITLE "1Q_t_0649-0658_35"
    INDEX 01 00:53:65
  TRACK 36 AUDIO
    TITLE "1Q_t_0649-0658_36"
    INDEX 01 00:59:39
  TRACK 37 AUDIO
    TITLE "1Q_t_0649-0658_37"
    INDEX 01 01:00:12
  TRACK 38 AUDIO
    TITLE "1Q_t_0649-0658_38"
    INDEX 01 01:01:18
  TRACK 39 AUDIO
    TITLE "1Q_t_0649-0658_39"
    INDEX 01 01:01:26
  TRACK 40 AUDIO
    TITLE "1Q_t_0649-0658_40"
    INDEX 01 01:03:44
  TRACK 41 AUDIO
    TITLE "1Q_t_0649-0658_41"
    INDEX 01 01:03:52
  TRACK 42 AUDIO
    TITLE "1Q_t_0649-0658_42"
    INDEX 01 01:09:19
  TRACK 43 AUDIO
    TITLE "1Q_t_0649-0658_43"
    INDEX 01 01:09:66
  TRACK 44 AUDIO
    TITLE "1Q_t_0649-0658_44"
    INDEX 01 01:11:01
  TRACK 45 AUDIO
    TITLE "1Q_t_0649-0658_45"
    INDEX 01 01:11:08
  TRACK 46 AUDIO
    TITLE "1Q_t_0649-0658_46"
    INDEX 01 01:12:24
  TRACK 47 AUDIO
    TITLE "1Q_t_0649-0658_47"
    INDEX 01 01:12:29
  TRACK 48 AUDIO
    TITLE "1Q_t_0649-0658_48"
    INDEX 01 01:15:63
  TRACK 49 AUDIO
    TITLE "1Q_t_0649-0658_49"
    INDEX 01 01:16:35
  TRACK 50 AUDIO
    TITLE "1Q_t_0649-0658_50"
    INDEX 01 01:17:42
  TRACK 51 AUDIO
    TITLE "1Q_t_0649-0658_51"
    INDEX 01 01:17:52
  TRACK 52 AUDIO
    TITLE "1Q_t_0649-0658_52"
    INDEX 01 01:19:63
  TRACK 53 AUDIO
    TITLE "1Q_t_0649-0658_53"
    INDEX 01 01:19:73
  TRACK 54 AUDIO
    TITLE "1Q_t_0649-0658_54"
    INDEX 01 01:23:63
  TRACK 55 AUDIO
    TITLE "1Q_t_0649-0658_55"
    INDEX 01 01:24:37
  TRACK 56 AUDIO
    TITLE "1Q_t_0649-0658_56"
    INDEX 01 01:25:52
  TRACK 57 AUDIO
    TITLE "1Q_t_0649-0658_57"
    INDEX 01 01:25:59
  TRACK 58 AUDIO
    TITLE "1Q_t_0649-0658_58"
    INDEX 01 01:26:51
  TRACK 59 AUDIO
    TITLE "1Q_t_0649-0658_59"
    INDEX 01 01:26:57
  TRACK 60 AUDIO
    TITLE "1Q_t_0649-0658_60"
    INDEX 01 01:30:63
